<svg xmlns="http://www.w3.org/2000/svg" xmlns:xlink="http://www.w3.org/1999/xlink" contentStyleType="text/css" data-diagram-type="DESCRIPTION" height="552px" preserveAspectRatio="none" style="width:2313px;height:552px;background:#FFFFFF;" version="1.1" viewBox="0 0 2313 552" width="2313px" zoomAndPan="magnify"><title>Online Store Use Case Diagram</title><defs/><g><text fill="#000000" font-family="sans-serif" font-size="14" font-weight="bold" lengthAdjust="spacing" textLength="246.791" x="1026.1045" y="22.9951">Online Store Use Case Diagram</text><!--cluster Online Store System--><g id="cluster_Online Store System"><rect fill="transparent" height="228" rx="2.5" ry="2.5" style="stroke:#181818;stroke-width:1;" width="2300" x="7" y="318.7969"/><text fill="#000000" font-family="sans-serif" font-size="14" font-weight="bold" lengthAdjust="spacing" textLength="161.7861" x="1076.1069" y="333.792">Online Store System</text></g><g id="elem_UC1"><ellipse cx="405.766" cy="392.5501" fill="#F1F1F1" rx="79.266" ry="18.2532" style="stroke:#181818;stroke-width:0.5;"/><text fill="#000000" font-family="sans-serif" font-size="14" lengthAdjust="spacing" textLength="116.7373" x="345.4498" y="396.0122">Browse Products</text></g><g id="elem_UC2"><ellipse cx="101.0984" cy="392.8166" fill="#F1F1F1" rx="78.0984" ry="18.0197" style="stroke:#181818;stroke-width:0.5;"/><text fill="#000000" font-family="sans-serif" font-size="14" lengthAdjust="spacing" textLength="113.8594" x="41.7565" y="396.4084">Search Products</text></g><g id="elem_UC3"><ellipse cx="786.123" cy="392.8215" fill="#F1F1F1" rx="73.123" ry="17.0246" style="stroke:#181818;stroke-width:0.5;"/><text fill="#000000" font-family="sans-serif" font-size="14" lengthAdjust="spacing" textLength="101.1445" x="732.5508" y="396.569">Filter Products</text></g><g id="elem_UC4"><ellipse cx="922.7992" cy="510.4567" fill="#F1F1F1" rx="91.2992" ry="20.6598" style="stroke:#181818;stroke-width:0.5;"/><text fill="#000000" font-family="sans-serif" font-size="14" lengthAdjust="spacing" textLength="144.6758" x="850.4613" y="513.3034">View Product Details</text></g><g id="elem_UC5"><ellipse cx="959.8874" cy="392.7743" fill="#F1F1F1" rx="65.3874" ry="15.4775" style="stroke:#181818;stroke-width:0.5;"/><text fill="#000000" font-family="sans-serif" font-size="14" lengthAdjust="spacing" textLength="79.9053" x="916.9347" y="396.5219">Add to Cart</text></g><g id="elem_UC6"><ellipse cx="1119.8153" cy="392.564" fill="#F1F1F1" rx="59.3153" ry="14.7671" style="stroke:#181818;stroke-width:0.5;"/><text fill="#000000" font-family="sans-serif" font-size="14" lengthAdjust="spacing" textLength="65.9941" x="1083.8183" y="396.3115">Checkout</text></g><g id="elem_UC7"><ellipse cx="1130.1241" cy="510.3217" fill="#F1F1F1" rx="80.6241" ry="18.5248" style="stroke:#181818;stroke-width:0.5;"/><text fill="#000000" font-family="sans-serif" font-size="14" lengthAdjust="spacing" textLength="120.0322" x="1068.6748" y="513.6328">Process Payment</text></g><g id="elem_UC8"><ellipse cx="1624.7945" cy="392.8558" fill="#F1F1F1" rx="75.7945" ry="17.5589" style="stroke:#181818;stroke-width:0.5;"/><text fill="#000000" font-family="sans-serif" font-size="14" lengthAdjust="spacing" textLength="108.0488" x="1567.7701" y="396.6033">Create Account</text></g><g id="elem_UC9"><ellipse cx="252.9641" cy="392.8526" fill="#F1F1F1" rx="38.4641" ry="14.5557" style="stroke:#181818;stroke-width:0.5;"/><text fill="#000000" font-family="sans-serif" font-size="14" lengthAdjust="spacing" textLength="38.0146" x="232.09" y="396.3075">Login</text></g><g id="elem_UC10"><ellipse cx="1468.0177" cy="392.9462" fill="#F1F1F1" rx="46.0177" ry="14.6494" style="stroke:#181818;stroke-width:0.5;"/><text fill="#000000" font-family="sans-serif" font-size="14" lengthAdjust="spacing" textLength="48.1797" x="1440.9279" y="396.6938">Logout</text></g><g id="elem_UC11"><ellipse cx="1300.8449" cy="392.8659" fill="#F1F1F1" rx="85.8449" ry="19.569" style="stroke:#181818;stroke-width:0.5;"/><text fill="#000000" font-family="sans-serif" font-size="14" lengthAdjust="spacing" textLength="132.2686" x="1234.7106" y="395.7125">View Order History</text></g><g id="elem_UC12"><ellipse cx="598.8659" cy="392.87" fill="#F1F1F1" rx="78.3659" ry="18.0732" style="stroke:#181818;stroke-width:0.5;"/><text fill="#000000" font-family="sans-serif" font-size="14" lengthAdjust="spacing" textLength="114.5225" x="539.3008" y="396.4322">Manage Wishlist</text></g><g id="elem_AP"><ellipse cx="1675.8491" cy="510.1667" fill="#F1F1F1" rx="67.3491" ry="15.8698" style="stroke:#181818;stroke-width:0.5;"/><text fill="#000000" font-family="sans-serif" font-size="14" lengthAdjust="spacing" textLength="85.5107" x="1630.0937" y="513.9143">Add Product</text></g><g id="elem_EP"><ellipse cx="1321.7641" cy="510.1497" fill="#F1F1F1" rx="67.2641" ry="15.8528" style="stroke:#181818;stroke-width:0.5;"/><text fill="#000000" font-family="sans-serif" font-size="14" lengthAdjust="spacing" textLength="85.2715" x="1276.1284" y="513.8973">Edit Product</text></g><g id="elem_DP"><ellipse cx="1498.7812" cy="510.0531" fill="#F1F1F1" rx="74.2812" ry="17.2562" style="stroke:#181818;stroke-width:0.5;"/><text fill="#000000" font-family="sans-serif" font-size="14" lengthAdjust="spacing" textLength="104.1592" x="1443.7016" y="513.8007">Delete Product</text></g><g id="elem_AC"><ellipse cx="2220.085" cy="510.4139" fill="#F1F1F1" rx="71.085" ry="16.617" style="stroke:#181818;stroke-width:0.5;"/><text fill="#000000" font-family="sans-serif" font-size="14" lengthAdjust="spacing" textLength="95.751" x="2169.2095" y="514.1614">Add Category</text></g><g id="elem_EC"><ellipse cx="1849.9957" cy="510.396" fill="#F1F1F1" rx="70.9957" ry="16.5991" style="stroke:#181818;stroke-width:0.5;"/><text fill="#000000" font-family="sans-serif" font-size="14" lengthAdjust="spacing" textLength="95.5117" x="1799.2398" y="514.1436">Edit Category</text></g><g id="elem_DC"><ellipse cx="2034.8162" cy="510.3601" fill="#F1F1F1" rx="78.3162" ry="18.0632" style="stroke:#181818;stroke-width:0.5;"/><text fill="#000000" font-family="sans-serif" font-size="14" lengthAdjust="spacing" textLength="114.3994" x="1975.2926" y="513.9278">Delete Category</text></g><g id="elem_VA"><ellipse cx="2216.7798" cy="392.8528" fill="#F1F1F1" rx="73.2798" ry="17.056" style="stroke:#181818;stroke-width:0.5;"/><text fill="#000000" font-family="sans-serif" font-size="14" lengthAdjust="spacing" textLength="101.5547" x="2163.0025" y="396.6004">View Analytics</text></g><g id="elem_MP"><ellipse cx="1817.054" cy="392.9077" fill="#F1F1F1" rx="81.054" ry="18.6108" style="stroke:#181818;stroke-width:0.5;"/><text fill="#000000" font-family="sans-serif" font-size="14" lengthAdjust="spacing" textLength="121.0645" x="1755.246" y="396.171">Manage Products</text></g><g id="elem_MC"><ellipse cx="2020.7653" cy="392.6499" fill="#F1F1F1" rx="87.2653" ry="19.8531" style="stroke:#181818;stroke-width:0.5;"/><text fill="#000000" font-family="sans-serif" font-size="14" lengthAdjust="spacing" textLength="135.5225" x="1953.0041" y="395.4966">Manage Categories</text></g><!--entity Guest--><g id="elem_Guest"><ellipse cx="595.2393" cy="51.2969" fill="#F1F1F1" rx="8" ry="8" style="stroke:#181818;stroke-width:0.5;"/><path d="M595.2393,59.2969 L595.2393,86.2969 M582.2393,67.2969 L608.2393,67.2969 M595.2393,86.2969 L582.2393,101.2969 M595.2393,86.2969 L608.2393,101.2969 " fill="transparent" style="stroke:#181818;stroke-width:0.5;"/><text fill="#000000" font-family="sans-serif" font-size="14" lengthAdjust="spacing" textLength="77.4785" x="556.5" y="115.792">Guest User</text></g><!--entity Customer--><g id="elem_Customer"><ellipse cx="960.002" cy="188.2969" fill="#F1F1F1" rx="8" ry="8" style="stroke:#181818;stroke-width:0.5;"/><path d="M960.002,196.2969 L960.002,223.2969 M947.002,204.2969 L973.002,204.2969 M960.002,223.2969 L947.002,238.2969 M960.002,223.2969 L973.002,238.2969 " fill="transparent" style="stroke:#181818;stroke-width:0.5;"/><text fill="#000000" font-family="sans-serif" font-size="14" lengthAdjust="spacing" textLength="68.0039" x="926" y="252.792">Customer</text></g><!--entity Admin--><g id="elem_Admin"><ellipse cx="2020.9321" cy="188.2969" fill="#F1F1F1" rx="8" ry="8" style="stroke:#181818;stroke-width:0.5;"/><path d="M2020.9321,196.2969 L2020.9321,223.2969 M2007.9321,204.2969 L2033.9321,204.2969 M2020.9321,223.2969 L2007.9321,238.2969 M2020.9321,223.2969 L2033.9321,238.2969 " fill="transparent" style="stroke:#181818;stroke-width:0.5;"/><text fill="#000000" font-family="sans-serif" font-size="14" lengthAdjust="spacing" textLength="44.8643" x="1998.5" y="252.792">Admin</text></g><!--reverse link Guest to Customer--><g id="link_Guest_Customer"><path d="M650.6023,102.3609 C722.3323,128.8909 857.91,179.0369 925.96,204.2069 " fill="transparent" id="Guest-backto-Customer" style="stroke:#181818;stroke-width:1;"/><polygon fill="transparent" points="633.72,96.1169,648.5209,107.9884,652.6836,96.7335,633.72,96.1169" style="stroke:#181818;stroke-width:1;"/></g><!--link Guest to UC1--><g id="link_Guest_UC1"><path d="M556.31,90.8869 C480.53,111.0069 314.02,167.2469 246,285.7969 C242.24,292.3469 241.01,297.1269 246,302.7969 C255.33,313.3869 296.06,305.1569 309,310.7969 C342.59,325.4369 369.5729,351.0264 387.1029,370.1264 " fill="transparent" id="Guest-to-UC1" style="stroke:#181818;stroke-width:1;"/><polygon fill="#181818" points="391.16,374.5469,388.0213,365.2115,387.7791,370.8632,382.1274,370.621,391.16,374.5469" style="stroke:#181818;stroke-width:1;"/></g><!--link Guest to UC2--><g id="link_Guest_UC2"><path d="M556.49,80.9369 C482.48,81.4069 319.26,92.9469 224,179.7969 C160.79,237.4169 123.0527,329.6017 108.8727,368.9817 " fill="transparent" id="Guest-to-UC2" style="stroke:#181818;stroke-width:1;"/><polygon fill="#181818" points="106.84,374.6269,113.6525,367.5143,108.5339,369.9226,106.1256,364.804,106.84,374.6269" style="stroke:#181818;stroke-width:1;"/></g><!--link Guest to UC8--><g id="link_Guest_UC8"><path d="M633.56,83.5469 C767.13,91.1069 1219.01,129.4769 1532,310.7969 C1562.75,328.6169 1588.5785,353.055 1605.8485,371.075 " fill="transparent" id="Guest-to-UC8" style="stroke:#181818;stroke-width:1;"/><polygon fill="#181818" points="1610,375.4069,1606.6606,366.1414,1606.5404,371.797,1600.8848,371.6768,1610,375.4069" style="stroke:#181818;stroke-width:1;"/></g><!--link Guest to UC9--><g id="link_Guest_UC9"><path d="M556.4,81.5269 C487.17,83.2369 341.67,97.1369 262,179.7969 C208.7,235.0969 234.4073,335.2369 246.4673,372.6069 " fill="transparent" id="Guest-to-UC9" style="stroke:#181818;stroke-width:1;"/><polygon fill="#181818" points="248.31,378.3169,249.3526,368.5234,246.7744,373.5585,241.7392,370.9803,248.31,378.3169" style="stroke:#181818;stroke-width:1;"/></g><!--link Guest to UC10--><g id="link_Guest_UC10"><path d="M633.52,89.6669 C707.43,105.0169 874.04,140.8869 1012,179.7969 C1156.6,220.5769 1190.7,237.5969 1333,285.7969 C1365.08,296.6669 1377.47,291.0569 1405,310.7969 C1430.48,329.0669 1447.7367,355.2797 1457.8867,373.1497 " fill="transparent" id="Guest-to-UC10" style="stroke:#181818;stroke-width:1;"/><polygon fill="#181818" points="1460.85,378.3669,1459.8832,368.5656,1458.3806,374.0192,1452.9269,372.5167,1460.85,378.3669" style="stroke:#181818;stroke-width:1;"/></g><!--link Customer to UC1--><g id="link_Customer_UC1"><path d="M925.65,219.4569 C791.49,222.3669 308.01,236.2569 263,285.7969 C230.61,321.4569 288.81,301.4369 309,310.7969 C342.04,326.1069 368.9129,351.2529 386.6129,370.1029 " fill="transparent" id="Customer-to-UC1" style="stroke:#181818;stroke-width:1;"/><polygon fill="#181818" points="390.72,374.4769,387.4753,365.1778,387.2974,370.8319,381.6433,370.654,390.72,374.4769" style="stroke:#181818;stroke-width:1;"/></g><!--link Customer to UC5--><g id="link_Customer_UC5"><path d="M960,255.9069 C960,293.6369 960,344.2169 960,370.8769 " fill="transparent" id="Customer-to-UC5" style="stroke:#181818;stroke-width:1;"/><polygon fill="#181818" points="960,376.8769,964,367.8769,960,371.8769,956,367.8769,960,376.8769" style="stroke:#181818;stroke-width:1;"/></g><!--link Customer to UC6--><g id="link_Customer_UC6"><path d="M994.32,255.9069 C1029.77,294.2369 1079.1259,347.6021 1103.2759,373.7121 " fill="transparent" id="Customer-to-UC6" style="stroke:#181818;stroke-width:1;"/><polygon fill="#181818" points="1107.35,378.1169,1104.1754,368.7937,1103.9549,374.4463,1098.3024,374.2258,1107.35,378.1169" style="stroke:#181818;stroke-width:1;"/></g><!--link Customer to UC10--><g id="link_Customer_UC10"><path d="M994.02,226.9369 C1061.58,242.9269 1217.59,278.9369 1350,302.7969 C1374.31,307.1769 1383.65,298.3669 1405,310.7969 C1432.41,326.7469 1449.432,354.3329 1458.922,372.9229 " fill="transparent" id="Customer-to-UC10" style="stroke:#181818;stroke-width:1;"/><polygon fill="#181818" points="1461.65,378.2669,1461.1206,368.4323,1459.3766,373.8136,1453.9953,372.0696,1461.65,378.2669" style="stroke:#181818;stroke-width:1;"/></g><!--link Customer to UC11--><g id="link_Customer_UC11"><path d="M994.37,228.6569 C1041.77,243.0269 1129.05,272.2469 1197,310.7969 C1228.85,328.8669 1257.026,352.0001 1277.046,369.8001 " fill="transparent" id="Customer-to-UC11" style="stroke:#181818;stroke-width:1;"/><polygon fill="#181818" points="1281.53,373.7869,1277.4619,364.8175,1277.7934,370.4646,1272.1462,370.7961,1281.53,373.7869" style="stroke:#181818;stroke-width:1;"/></g><!--link Customer to UC12--><g id="link_Customer_UC12"><path d="M925.68,226.4269 C873.47,238.9469 772.03,266.9469 695,310.7969 C663.73,328.5969 637.1279,352.8495 619.1479,370.8695 " fill="transparent" id="Customer-to-UC12" style="stroke:#181818;stroke-width:1;"/><polygon fill="#181818" points="614.91,375.1169,624.0985,371.5711,618.4416,371.5774,618.4353,365.9206,614.91,375.1169" style="stroke:#181818;stroke-width:1;"/></g><!--link Admin to MP--><g id="link_Admin_MP"><path d="M1998.39,237.9769 C1958.24,272.0169 1879.7254,338.5955 1841.5554,370.9755 " fill="transparent" id="Admin-to-MP" style="stroke:#181818;stroke-width:1;"/><polygon fill="#181818" points="1836.98,374.8569,1846.4308,372.0851,1840.7929,371.6224,1841.2556,365.9845,1836.98,374.8569" style="stroke:#181818;stroke-width:1;"/></g><!--link MP to AP--><g id="link_MP_AP"><path d="M1796.19,410.8369 C1768.46,433.5569 1724.5015,469.5647 1698.4015,490.9447 " fill="transparent" id="MP-to-AP" style="stroke:#181818;stroke-width:1;"/><polygon fill="#181818" points="1693.76,494.7469,1703.257,492.138,1697.6279,491.5784,1698.1875,485.9493,1693.76,494.7469" style="stroke:#181818;stroke-width:1;"/><text fill="#000000" font-family="sans-serif" font-size="13" lengthAdjust="spacing" textLength="63.0068" x="1755" y="455.8638">&#171;include&#187;</text></g><!--link MP to EP--><g id="link_MP_EP"><path d="M1757.69,405.4569 C1744.93,407.9169 1731.52,410.4669 1719,412.7969 C1644,426.7269 1624.28,425.4269 1550,442.7969 C1482.15,458.6669 1410.2333,480.7345 1365.3033,495.1445 " fill="transparent" id="MP-to-EP" style="stroke:#181818;stroke-width:1;"/><polygon fill="#181818" points="1359.59,496.9769,1369.3816,498.0372,1364.3511,495.4499,1366.9384,490.4194,1359.59,496.9769" style="stroke:#181818;stroke-width:1;"/><text fill="#000000" font-family="sans-serif" font-size="13" lengthAdjust="spacing" textLength="63.0068" x="1551" y="455.8638">&#171;include&#187;</text></g><!--link MP to DP--><g id="link_MP_DP"><path d="M1770.15,407.9769 C1739.95,417.3469 1699.95,430.1769 1665,442.7969 C1619.01,459.3969 1572.3048,478.4305 1538.9248,492.4005 " fill="transparent" id="MP-to-DP" style="stroke:#181818;stroke-width:1;"/><polygon fill="#181818" points="1533.39,494.7169,1543.2365,494.9322,1538.0024,492.7865,1540.148,487.5524,1533.39,494.7169" style="stroke:#181818;stroke-width:1;"/><text fill="#000000" font-family="sans-serif" font-size="13" lengthAdjust="spacing" textLength="63.0068" x="1666" y="455.8638">&#171;include&#187;</text></g><!--link Admin to MC--><g id="link_Admin_MC"><path d="M2021,255.9069 C2021,291.6469 2021,338.3169 2021,366.4269 " fill="transparent" id="Admin-to-MC" style="stroke:#181818;stroke-width:1;"/><polygon fill="#181818" points="2021,372.4269,2025,363.4269,2021,367.4269,2017,363.4269,2021,372.4269" style="stroke:#181818;stroke-width:1;"/></g><!--link MC to AC--><g id="link_MC_AC"><path d="M2051.66,411.5869 C2091.02,434.4369 2153.3708,470.6248 2189.7908,491.7648 " fill="transparent" id="MC-to-AC" style="stroke:#181818;stroke-width:1;"/><polygon fill="#181818" points="2194.98,494.7769,2189.2043,486.7993,2190.6557,492.2668,2185.1882,493.7182,2194.98,494.7769" style="stroke:#181818;stroke-width:1;"/><text fill="#000000" font-family="sans-serif" font-size="13" lengthAdjust="spacing" textLength="63.0068" x="2133" y="455.8638">&#171;include&#187;</text></g><!--link MC to EC--><g id="link_MC_EC"><path d="M1994.28,411.8469 C1960.56,434.6169 1908.1614,470.0076 1876.8914,491.1376 " fill="transparent" id="MC-to-EC" style="stroke:#181818;stroke-width:1;"/><polygon fill="#181818" points="1871.92,494.4969,1881.6167,492.7722,1876.0628,491.6974,1877.1376,486.1436,1871.92,494.4969" style="stroke:#181818;stroke-width:1;"/><text fill="#000000" font-family="sans-serif" font-size="13" lengthAdjust="spacing" textLength="63.0068" x="1946" y="455.8638">&#171;include&#187;</text></g><!--link MC to DC--><g id="link_MC_DC"><path d="M2023.31,412.8669 C2025.98,434.9069 2029.6186,464.9104 2032.1886,486.1304 " fill="transparent" id="MC-to-DC" style="stroke:#181818;stroke-width:1;"/><polygon fill="#181818" points="2032.91,492.0869,2035.7989,482.6712,2032.3088,487.1231,2027.8569,483.6331,2032.91,492.0869" style="stroke:#181818;stroke-width:1;"/><text fill="#000000" font-family="sans-serif" font-size="13" lengthAdjust="spacing" textLength="63.0068" x="2029" y="455.8638">&#171;include&#187;</text></g><!--link Admin to VA--><g id="link_Admin_VA"><path d="M2043.58,238.4869 C2064.87,257.0769 2097.66,285.7669 2126,310.7969 C2151.68,333.4769 2176.8255,355.8895 2195.1155,372.2295 " fill="transparent" id="Admin-to-VA" style="stroke:#181818;stroke-width:1;"/><polygon fill="#181818" points="2199.59,376.2269,2195.5433,367.2478,2195.8613,372.8957,2190.2134,373.2137,2199.59,376.2269" style="stroke:#181818;stroke-width:1;"/></g><!--link UC1 to UC2--><g id="link_UC1_UC2"><path d="M391.16,374.4069 C373.86,354.5869 343.24,324.2169 309,311.7969 C262.2,294.8269 243.75,294.7069 197,311.7969 C162.8,324.2969 136.27,350.4059 119.25,370.2159 " fill="transparent" id="UC1-to-UC2" style="stroke:#181818;stroke-width:1;stroke-dasharray:7.0,7.0;"/><polygon fill="#181818" points="115.34,374.7669,124.2391,370.5471,118.5984,370.9744,118.1711,365.3337,115.34,374.7669" style="stroke:#181818;stroke-width:1;"/><text fill="#000000" font-family="sans-serif" font-size="13" lengthAdjust="spacing" textLength="61.1851" x="265.5" y="298.8638">&#171;extend&#187;</text></g><!--link UC1 to UC3--><g id="link_UC1_UC3"><path d="M420.84,374.4069 C438.14,354.5869 468.76,324.2169 503,311.7969 C583.22,282.7069 615.25,281.4469 695,311.7969 C728.6,324.5869 753.9665,351.418 769.7265,371.158 " fill="transparent" id="UC1-to-UC3" style="stroke:#181818;stroke-width:1;stroke-dasharray:7.0,7.0;"/><polygon fill="#181818" points="773.47,375.8469,770.9806,366.3178,770.3504,371.9394,764.7288,371.3092,773.47,375.8469" style="stroke:#181818;stroke-width:1;"/><text fill="#000000" font-family="sans-serif" font-size="13" lengthAdjust="spacing" textLength="61.1851" x="597.5" y="298.8638">&#171;extend&#187;</text></g><!--link UC5 to UC4--><g id="link_UC5_UC4"><path d="M955.31,408.4269 C948.7,429.0669 938.4509,461.0631 931.0809,484.0631 " fill="transparent" id="UC5-to-UC4" style="stroke:#181818;stroke-width:1;"/><polygon fill="#181818" points="929.25,489.7769,935.8056,482.4267,930.7758,485.0154,928.1871,479.9855,929.25,489.7769" style="stroke:#181818;stroke-width:1;"/><text fill="#000000" font-family="sans-serif" font-size="13" lengthAdjust="spacing" textLength="63.0068" x="944" y="455.8638">&#171;include&#187;</text></g><!--link UC6 to UC7--><g id="link_UC6_UC7"><path d="M1121.23,407.9569 C1123.05,429.0469 1125.9619,462.6793 1127.9519,485.6393 " fill="transparent" id="UC6-to-UC7" style="stroke:#181818;stroke-width:1;"/><polygon fill="#181818" points="1128.47,491.6169,1131.6779,482.3051,1128.0383,486.6356,1123.7078,482.9959,1128.47,491.6169" style="stroke:#181818;stroke-width:1;"/><text fill="#000000" font-family="sans-serif" font-size="13" lengthAdjust="spacing" textLength="63.0068" x="1126" y="455.8638">&#171;include&#187;</text></g><!--link UC6 to UC9--><g id="link_UC6_UC9"><path d="M1111.33,377.9569 C1099.01,358.4969 1074.38,325.2669 1043,311.7969 C1005.53,295.7169 345.11,292.8569 309,311.7969 C282.35,325.7669 268.1044,353.2444 260.4044,372.5344 " fill="transparent" id="UC6-to-UC9" style="stroke:#181818;stroke-width:1;stroke-dasharray:7.0,7.0;"/><polygon fill="#181818" points="258.18,378.1069,265.2315,371.2311,260.0336,373.4632,257.8016,368.2653,258.18,378.1069" style="stroke:#181818;stroke-width:1;"/><text fill="#000000" font-family="sans-serif" font-size="13" lengthAdjust="spacing" textLength="63.0068" x="437.5" y="298.8638">&#171;include&#187;</text></g><!--link UC11 to UC9--><g id="link_UC11_UC9"><path d="M1284.11,373.6569 C1265.2,353.8069 1232.5,323.9869 1197,311.7969 C1150.34,295.7669 352.69,288.8869 309,311.7969 C282.35,325.7669 268.1044,353.2444 260.4044,372.5344 " fill="transparent" id="UC11-to-UC9" style="stroke:#181818;stroke-width:1;stroke-dasharray:7.0,7.0;"/><polygon fill="#181818" points="258.18,378.1069,265.2315,371.2311,260.0336,373.4632,257.8016,368.2653,258.18,378.1069" style="stroke:#181818;stroke-width:1;"/><text fill="#000000" font-family="sans-serif" font-size="13" lengthAdjust="spacing" textLength="63.0068" x="520.5" y="298.8638">&#171;include&#187;</text></g><!--link UC12 to UC9--><g id="link_UC12_UC9"><path d="M584.66,374.7669 C567.64,354.9569 537.2,324.2969 503,311.7969 C462.51,296.9969 347.18,291.7769 309,311.7969 C282.35,325.7669 268.1044,353.2444 260.4044,372.5344 " fill="transparent" id="UC12-to-UC9" style="stroke:#181818;stroke-width:1;stroke-dasharray:7.0,7.0;"/><polygon fill="#181818" points="258.18,378.1069,265.2315,371.2311,260.0336,373.4632,257.8016,368.2653,258.18,378.1069" style="stroke:#181818;stroke-width:1;"/><text fill="#000000" font-family="sans-serif" font-size="13" lengthAdjust="spacing" textLength="63.0068" x="340.5" y="298.8638">&#171;include&#187;</text></g><!--SRC=[ZPDDRvim6CVlV0ehbsu7fYHjsgQA8Z73kiEYe4NjpXuy8jR0ZcoZBjhstMUmUJ7ned50yl_tlFknege4j6SbPO0EYWj0Bn8G9leNKr88KWK1oJH0i-SQf6gmc24YKNkq3DTIyGg4FKPvHLaG68VDxp0S3081cIAiq5bdJjh3MIgePkXN423ztQ2mSUDLnLcRiwzBDgIrUVTHy3UjfeBdTQRa-wQi5xmmy014PCSfN1huYPPAnvp0MmDVARnr2CMW22qxYpjZ4UKvKboN8vG5AmFm4R8VlExKUwFgM1b8YL9ohe1ryC6w220AK9HblExPes5VU46PbTQzDCHVp4SLxqMkM_fCzQJ5kJEmmzWHHWf0twWybjgWeylniDjRyusvwTQEetMCKgCdELKEI2o8eGG53ehJ8HRM_HPTZH4U1ND8Wfre3elngF68aVAiQ6OkwJKQDxK_ASerHz5tgOHUJ_GiU7sYh1ZwiyDnbc6NEimcfs0f7kVe7yPaS4OFmss_b6DbUQ4yNYZhopXpvttOP-L9tgDn_ecuyedtNlUvL_L6_R-jCdhZOKUzIzjJbA8djDbGbfLr3jljc2LNM3nbqoncOtROPC6-I8ObLrYChsTnb-yhbAHPFtcafw5pFI7qeTs0DXRyLC1ocwPdjpwsiXE-ynIeByxIXt_GDkxQ2nUBgtJfft_-0W00]--></g></svg>